# xmcd
#
# Track frame offsets:
#	150
#	14943
#	30751
#	46679
#	61885
#	73567
#	86058
#	101911
#	113888
#	127709
#	143288
#	155659
#	166418
#	178775
#	191142
#
# Disc length: 2709 seconds
#
# Revision: 0
# Processed by: cddbd v1.5.1PL2 Copyright (c) Steve Scherf et al.
# Submitted via: audiograbber 1.83.01
#
DISCID=c40a930f
DTITLE=aRe and Be Super Soul - Rb018
DYEAR=1900
DGENRE=Karaoke
TTITLE0=Al Green - Still In Love With You
TTITLE1=Al Green - Don't Say No Tonight
TTITLE2=Dionne Warwick - Anyone Who Had A Heart
TTITLE3=Chuck Willis - Cc Rider
TTITLE4=Otis Redding - These Arms Of Mine
TTITLE5=Maxine Brown - Funny
TTITLE6=Joe Tex - Skinny Legs And All
TTITLE7=Esquires - Get On Up
TTITLE8=Ruth Brown - Mama He Treats Your Daughter Mean
TTITLE9=Gq - Disco Night Part 1
TTITLE10=Gq - Disco Night Part 2
TTITLE11=Ruth Brown - Lucky Lips
TTITLE12=Ray Charles - Lonely Ave
TTITLE13=Edsels - Rama Lama Ding Dong
TTITLE14=Shirley And Lee - Let The Good Times Roll
EXTD=
EXTT0=
EXTT1=
EXTT2=
EXTT3=
EXTT4=
EXTT5=
EXTT6=
EXTT7=
EXTT8=
EXTT9=
EXTT10=
EXTT11=
EXTT12=
EXTT13=
EXTT14=
PLAYORDER=
